<?xml version="1.0" encoding="utf-8"?>
<!-- Generator: Adobe Illustrator 27.5.0, SVG Export Plug-In . SVG Version: 6.00 Build 0)  -->
<svg version="1.1" xmlns="http://www.w3.org/2000/svg" xmlns:xlink="http://www.w3.org/1999/xlink" x="0px" y="0px"
	 viewBox="0 0 500 500" style="enable-background:new 0 0 500 500;" xml:space="preserve">
<g id="Background_Complete">
	<g>
		<rect y="382.398" style="fill:#EBEBEB;" width="500" height="0.25"/>
		<rect x="416.779" y="398.494" style="fill:#EBEBEB;" width="33.122" height="0.25"/>
		<rect x="292" y="401.208" style="fill:#EBEBEB;" width="39.22" height="0.25"/>
		<rect x="358.755" y="389.208" style="fill:#EBEBEB;" width="57.023" height="0.25"/>
		<rect x="174.477" y="390.888" style="fill:#EBEBEB;" width="68.631" height="0.25"/>
		<rect x="252.011" y="390.888" style="fill:#EBEBEB;" width="6.333" height="0.25"/>
		<rect x="98.333" y="395.111" style="fill:#EBEBEB;" width="126.814" height="0.25"/>
		<path style="fill:#EBEBEB;" d="M237.014,337.8H43.915c-3.147,0-5.708-2.561-5.708-5.708V60.66c0-3.147,2.561-5.708,5.708-5.708
			h193.099c3.146,0,5.707,2.561,5.707,5.708v271.432C242.721,335.239,240.16,337.8,237.014,337.8z M43.915,55.203
			c-3.01,0-5.458,2.448-5.458,5.458v271.432c0,3.01,2.448,5.458,5.458,5.458h193.099c3.009,0,5.457-2.448,5.457-5.458V60.66
			c0-3.009-2.448-5.458-5.457-5.458H43.915z"/>
		<path style="fill:#EBEBEB;" d="M453.31,337.8H260.212c-3.147,0-5.707-2.561-5.707-5.708V60.66c0-3.147,2.561-5.708,5.707-5.708
			H453.31c3.148,0,5.708,2.561,5.708,5.708v271.432C459.019,335.239,456.458,337.8,453.31,337.8z M260.212,55.203
			c-3.009,0-5.457,2.448-5.457,5.458v271.432c0,3.01,2.448,5.458,5.457,5.458H453.31c3.01,0,5.458-2.448,5.458-5.458V60.66
			c0-3.009-2.448-5.458-5.458-5.458H260.212z"/>
	</g>
	<g>
		<g>
			<g>
				<g>
					<rect x="67.611" y="115.716" style="fill:#E0E0E0;" width="60.847" height="88.343"/>
					<rect x="70.024" y="115.716" style="fill:#F5F5F5;" width="62.052" height="88.343"/>
					
						<rect x="63.841" y="134.06" transform="matrix(6.123234e-17 -1 1 6.123234e-17 -58.8373 260.938)" style="fill:#FFFFFF;" width="74.42" height="51.655"/>
					<path style="fill:#F5F5F5;" d="M105.874,154.34h7.602l0,0c0-9.527-7.723-17.251-17.251-17.251h-7.602l0,0
						C88.624,146.616,96.347,154.34,105.874,154.34z"/>
					<path style="fill:#F5F5F5;" d="M105.874,182.686h7.602l0,0c0-9.527-7.723-17.251-17.251-17.251h-7.602l0,0
						C88.624,174.963,96.347,182.686,105.874,182.686z"/>
				</g>
			</g>
			<g>
				<g>
					<rect x="148.851" y="97.355" style="fill:#E0E0E0;" width="60.847" height="88.343"/>
					<rect x="151.264" y="97.355" style="fill:#F5F5F5;" width="62.052" height="88.343"/>
					
						<rect x="145.081" y="115.699" transform="matrix(6.123234e-17 -1 1 6.123234e-17 40.7636 323.8171)" style="fill:#FFFFFF;" width="74.42" height="51.655"/>
					<path style="fill:#F5F5F5;" d="M164.462,143.505l15.85,15.85c3.503,3.503,9.183,3.503,12.686,0l7.121-7.121
						c3.503-3.503,3.503-9.182,0-12.686l-15.85-15.85c-3.503-3.503-9.182-3.503-12.686,0l-7.121,7.121
						C160.959,134.323,160.959,140.002,164.462,143.505z"/>
				</g>
			</g>
		</g>
		<g>
			<rect x="274.173" y="79.777" style="fill:#E6E6E6;" width="155.623" height="171.096"/>
			<rect x="276.547" y="79.777" style="fill:#F0F0F0;" width="158.329" height="171.096"/>
			<rect x="274.173" y="250.874" style="fill:#E6E6E6;" width="155.623" height="4.719"/>
			<rect x="285.008" y="250.874" style="fill:#F0F0F0;" width="158.329" height="4.719"/>
			
				<rect x="277.273" y="93.272" transform="matrix(-1.836970e-16 1 -1 -1.836970e-16 521.0366 -190.385)" style="fill:#FAFAFA;" width="156.875" height="144.107"/>
			<polygon style="fill:#FFFFFF;" points="375.398,243.763 386.785,86.888 406.487,86.888 395.1,243.763 			"/>
			<path style="fill:#F0F0F0;" d="M286.95,165.046c-0.301,0-0.544-0.244-0.544-0.544V91.515c0-0.3,0.243-0.544,0.544-0.544
				s0.544,0.244,0.544,0.544v72.987C287.494,164.802,287.251,165.046,286.95,165.046z"/>
			<polygon style="fill:#FFFFFF;" points="399.332,243.763 410.719,86.888 418.4,86.888 407.013,243.763 			"/>
			
				<rect x="348.875" y="164.874" transform="matrix(-1.836970e-16 1 -1 -1.836970e-16 592.6387 -261.9871)" style="fill:#E6E6E6;" width="156.875" height="0.903"/>
			<polygon style="opacity:0.5;fill:#E0E0E0;" points="436.557,105.771 280.934,105.771 280.28,89.652 435.902,89.652 			"/>
			<polygon style="opacity:0.5;fill:#E0E0E0;" points="436.557,132.269 280.934,132.269 280.28,116.15 435.902,116.15 			"/>
			<polygon style="opacity:0.5;fill:#E0E0E0;" points="436.557,158.767 280.934,158.767 280.28,142.648 435.902,142.648 			"/>
			<polygon style="opacity:0.5;fill:#E0E0E0;" points="436.557,185.264 280.934,185.264 280.28,169.145 435.902,169.145 			"/>
			<polygon style="opacity:0.5;fill:#E0E0E0;" points="436.557,211.762 280.934,211.762 280.28,195.643 435.902,195.643 			"/>
			<polygon style="opacity:0.5;fill:#E0E0E0;" points="436.557,238.26 280.934,238.26 280.28,222.141 435.902,222.141 			"/>
		</g>
		<g>
			<g>
				<rect x="73.42" y="243.7" style="fill:#F0F0F0;" width="17.326" height="134.035"/>
				<rect x="75.82" y="377.735" style="fill:#E6E6E6;" width="134.639" height="4.663"/>
				
					<rect x="90.746" y="243.7" transform="matrix(-1 -1.224647e-16 1.224647e-16 -1 303.6052 621.4353)" style="fill:#FAFAFA;" width="122.113" height="134.035"/>
				<path style="fill:#F0F0F0;" d="M191.34,326.789h-79.076c-4.414,0-8.004-3.59-8.004-8.004v-17.201
					c0-4.414,3.59-8.004,8.004-8.004h79.076c4.414,0,8.004,3.59,8.004,8.004v17.201C199.344,323.198,195.754,326.789,191.34,326.789
					z M112.265,294.58c-3.862,0-7.004,3.142-7.004,7.004v17.201c0,3.862,3.142,7.004,7.004,7.004h79.076
					c3.862,0,7.004-3.142,7.004-7.004v-17.201c0-3.862-3.142-7.004-7.004-7.004H112.265z"/>
				<path style="fill:#F0F0F0;" d="M191.34,368.244h-79.076c-4.414,0-8.004-3.59-8.004-8.004V343.04c0-4.414,3.59-8.004,8.004-8.004
					h79.076c4.414,0,8.004,3.59,8.004,8.004v17.201C199.344,364.654,195.754,368.244,191.34,368.244z M112.265,336.036
					c-3.862,0-7.004,3.142-7.004,7.004v17.201c0,3.862,3.142,7.004,7.004,7.004h79.076c3.862,0,7.004-3.142,7.004-7.004V343.04
					c0-3.862-3.142-7.004-7.004-7.004H112.265z"/>
				<path style="fill:#F0F0F0;" d="M153.984,306.591h-4.364c-0.888,0-1.615-0.727-1.615-1.615v-3.724
					c0-0.888,0.727-1.615,1.615-1.615h4.364c0.888,0,1.615,0.727,1.615,1.615v3.724
					C155.599,305.864,154.872,306.591,153.984,306.591z"/>
				<path style="fill:#F0F0F0;" d="M191.34,285.332h-79.076c-4.414,0-8.004-3.59-8.004-8.003v-17.201
					c0-4.414,3.59-8.004,8.004-8.004h79.076c4.414,0,8.004,3.59,8.004,8.004v17.201C199.344,281.742,195.754,285.332,191.34,285.332
					z M112.265,253.124c-3.862,0-7.004,3.142-7.004,7.004v17.201c0,3.862,3.142,7.003,7.004,7.003h79.076
					c3.862,0,7.004-3.142,7.004-7.003v-17.201c0-3.862-3.142-7.004-7.004-7.004H112.265z"/>
				<path style="fill:#F0F0F0;" d="M153.984,265.135h-4.364c-0.888,0-1.615-0.727-1.615-1.615v-3.724
					c0-0.888,0.727-1.615,1.615-1.615h4.364c0.888,0,1.615,0.727,1.615,1.615v3.724
					C155.599,264.408,154.872,265.135,153.984,265.135z"/>
				<path style="fill:#F0F0F0;" d="M153.984,348.046h-4.364c-0.888,0-1.615-0.727-1.615-1.615v-3.724
					c0-0.888,0.727-1.615,1.615-1.615h4.364c0.888,0,1.615,0.727,1.615,1.615v3.724
					C155.599,347.319,154.872,348.046,153.984,348.046z"/>
			</g>
			<rect x="90.746" y="239.361" style="fill:#F0F0F0;" width="125.277" height="4.339"/>
			
				<rect x="70.024" y="239.361" transform="matrix(-1 -1.224647e-16 1.224647e-16 -1 160.7703 483.0613)" style="fill:#E6E6E6;" width="20.722" height="4.339"/>
		</g>
		<g>
			
				<rect x="292.503" y="285.867" transform="matrix(-1 -1.224647e-16 1.224647e-16 -1 711.4217 590.8882)" style="fill:#EBEBEB;" width="126.417" height="19.154"/>
			
				<rect x="292.503" y="285.867" transform="matrix(-1 -1.224647e-16 1.224647e-16 -1 639.9742 590.8882)" style="fill:#E0E0E0;" width="54.969" height="19.154"/>
			
				<rect x="400.242" y="305.021" transform="matrix(-1 -1.224647e-16 1.224647e-16 -1 819.1608 687.4193)" style="fill:#EBEBEB;" width="18.678" height="77.378"/>
			<polygon style="fill:#E0E0E0;" points="400.242,310.384 418.919,307.702 418.919,305.021 400.242,305.021 			"/>
			
				<rect x="292.503" y="305.021" transform="matrix(-1 -1.224647e-16 1.224647e-16 -1 603.6825 687.4193)" style="fill:#E0E0E0;" width="18.677" height="77.378"/>
			
				<rect x="328.794" y="305.021" transform="matrix(-1 -1.224647e-16 1.224647e-16 -1 676.2658 687.4193)" style="fill:#EBEBEB;" width="18.678" height="77.378"/>
			<polygon style="fill:#E0E0E0;" points="328.794,310.384 347.472,307.702 347.472,305.021 328.794,305.021 			"/>
			
				<rect x="363.95" y="305.021" transform="matrix(-1 -1.224647e-16 1.224647e-16 -1 746.5774 687.4193)" style="fill:#E0E0E0;" width="18.678" height="77.378"/>
		</g>
	</g>
</g>
<g id="Background_Simple" style="display:none;">
	<g style="display:inline;">
		<path style="fill:#407BFF;" d="M380.95,320.754c-20.18,26.108-51.568,43.652-85.709,48.581
			c-33.555,4.844-47.18-24.599-78.269-37.78c-25.238-10.699-54.107-8.175-79.586-17.859c-24.305-9.238-44.804-27.506-55.311-51.043
			c-13.685-30.654-7.293-61.624,6.384-90.981c8.465-18.17,18.042-35.288,32.431-49.651c31.86-31.805,77.768-40.952,118.347-20.08
			c15.514,7.98,29.276,18.822,42.758,29.789c33.573,27.313,66.235,55.703,99.292,83.617c5.964,5.036,12.029,10.187,16.108,16.79
			c6.632,10.732,7.246,24.092,5.547,36.552C400.267,288.313,392.418,305.916,380.95,320.754z"/>
		<path style="opacity:0.9;fill:#FFFFFF;" d="M380.95,320.754c-20.18,26.108-51.568,43.652-85.709,48.581
			c-33.555,4.844-47.18-24.599-78.269-37.78c-25.238-10.699-54.107-8.175-79.586-17.859c-24.305-9.238-44.804-27.506-55.311-51.043
			c-13.685-30.654-7.293-61.624,6.384-90.981c8.465-18.17,18.042-35.288,32.431-49.651c31.86-31.805,77.768-40.952,118.347-20.08
			c15.514,7.98,29.276,18.822,42.758,29.789c33.573,27.313,66.235,55.703,99.292,83.617c5.964,5.036,12.029,10.187,16.108,16.79
			c6.632,10.732,7.246,24.092,5.547,36.552C400.267,288.313,392.418,305.916,380.95,320.754z"/>
	</g>
</g>
<g id="Shadow_1_">
	<ellipse id="_x3C_Path_x3E__42_" style="fill:#F5F5F5;" cx="250" cy="416.238" rx="193.889" ry="11.323"/>
</g>
<g id="Blog">
	<g>
		<g>
			<path style="fill:#263238;" d="M244.267,245.778l-18.36-56.827c-0.663-2.053-2.516-3.814-4.551-4.539
				c1.682-0.77,2.838-2.477,2.792-4.456l-1.335-57.373c-0.063-2.693-2.322-4.897-5.021-4.897H116.202
				c-2.693,0-4.846,2.199-4.783,4.887l1.336,57.383c0.034,1.453,0.706,2.762,1.741,3.66c0.594,0.515,0.69,1.336,0.299,1.945
				c-0.566,0.881-0.705,2.076-0.281,3.39l18.36,56.827c0.87,2.693,3.786,4.897,6.479,4.897h101.599
				C243.645,250.675,245.137,248.471,244.267,245.778z"/>
			<rect x="197.5" y="114.187" style="fill:#407BFF;" width="5.167" height="1"/>
			<rect x="173.167" y="114.187" style="fill:#407BFF;" width="18" height="1"/>
			<path style="fill:#407BFF;" d="M245.553,245.778l-18.36-56.827c-0.663-2.053-2.516-3.814-4.551-4.539
				c1.682-0.77,2.838-2.477,2.792-4.456l-1.335-57.383c-0.063-2.688-2.317-4.887-5.011-4.887H117.488
				c-2.693,0-4.846,2.199-4.783,4.887l1.336,57.383c0.034,1.453,0.706,2.762,1.741,3.66c0.594,0.515,0.69,1.336,0.299,1.945
				c-0.566,0.881-0.705,2.076-0.281,3.39l18.36,56.827c0.87,2.693,3.786,4.897,6.479,4.897h101.599
				C244.932,250.675,246.423,248.471,245.553,245.778z"/>
			<g style="opacity:0.5;">
				<polygon style="fill:#FFFFFF;" points="159.103,121.768 143.483,121.768 129.69,180.773 145.309,180.773 				"/>
				<polygon style="fill:#FFFFFF;" points="170.373,121.768 163.379,121.768 149.586,180.773 156.579,180.773 				"/>
				<polygon style="fill:#FFFFFF;" points="209.078,121.768 202.084,121.768 188.291,180.773 195.284,180.773 				"/>
			</g>
			<path style="opacity:0.8;fill:#FFFFFF;" d="M120.073,180.773c-1.063,0-1.953-0.87-1.978-1.933l-1.283-55.14
				c-0.025-1.063,0.825-1.933,1.888-1.933h99.366c1.063,0,1.953,0.87,1.978,1.933l1.283,55.14c0.025,1.063-0.825,1.933-1.888,1.933
				H120.073z"/>
			<g>
				<path style="opacity:0.2;" d="M132.593,222.313c-1.063,0-2.214-0.87-2.557-1.933l-9.794-30.312
					c-0.343-1.063,0.245-1.933,1.308-1.933h99.366c1.063,0,2.214,0.87,2.557,1.933l9.794,30.312
					c0.343,1.063-0.245,1.933-1.308,1.933H132.593z"/>
				<path style="opacity:0.2;" d="M175.782,246.155c-0.62,0-1.29-0.507-1.49-1.126l-5.708-17.667c-0.2-0.62,0.143-1.127,0.762-1.127
					h28.393c0.62,0,1.29,0.507,1.491,1.127l5.708,17.667c0.2,0.619-0.143,1.126-0.763,1.126H175.782z"/>
			</g>
		</g>
		<g>
			<path style="fill:#263238;" d="M206.669,173.693h-60.883c-2.632-0.024-4.825,2.256-4.502,7.08h60.883
				C201.844,175.95,204.037,173.669,206.669,173.693z"/>
			<g>
				<path style="fill:#407BFF;" d="M145.786,173.693c2.632,0.024,4.702,2.343,5.031,7.167c0.979,14.364,1.383,48.567,7.771,75.774
					c0.955,4.684,3.726,7.561,6.203,6.419h60.883c-2.477,1.142-5.248-1.735-6.203-6.419c-6.387-27.207-6.791-61.41-7.77-75.774
					c-0.329-4.824-2.398-7.143-5.031-7.167H145.786z"/>
				<path style="opacity:0.7;fill:#FFFFFF;" d="M145.786,173.693c2.632,0.024,4.702,2.343,5.031,7.167
					c0.979,14.364,1.383,48.567,7.771,75.774c0.955,4.684,3.726,7.561,6.203,6.419h60.883c-2.477,1.142-5.248-1.735-6.203-6.419
					c-6.387-27.207-6.791-61.41-7.77-75.774c-0.329-4.824-2.398-7.143-5.031-7.167H145.786z"/>
			</g>
			<path style="fill:#263238;" d="M170.908,240.621c-0.484,0.038-0.964,0.224-1.428,0.572c-2.33,1.749-3.191,6.812-1.924,11.307
				c0.949,4.687-0.289,9.411-2.765,10.553h60.883c2.477-1.142,3.715-5.866,2.765-10.553c-1.267-4.495-0.406-9.558,1.924-11.307
				c0.465-0.349,0.946-0.534,1.43-0.572H170.908z"/>
			<g>
				<path style="fill:#407BFF;" d="M253.349,403.792c0,0-1.508-18.89-2.643-45.771c-2.18-51.652-9.658-98.023-14.222-111.855
					c-1.075-3.259-2.885-5.406-4.704-5.545l-60.872,0.001c0.487,0.039,0.972,0.232,1.443,0.542c1.287,0.845,2.465,2.622,3.251,5.002
					c4.564,13.832,12.042,60.204,14.222,111.855c1.134,26.881,2.642,45.771,2.642,45.771c0.358,4.823,2.768,8.711,5.397,8.682
					h60.883C256.117,412.503,253.706,408.616,253.349,403.792z"/>
				<path style="opacity:0.7;fill:#FFFFFF;" d="M253.349,403.792c0,0-1.508-18.89-2.643-45.771
					c-2.18-51.652-9.658-98.023-14.222-111.855c-1.075-3.259-2.885-5.406-4.704-5.545l-60.872,0.001
					c0.487,0.039,0.972,0.232,1.443,0.542c1.287,0.845,2.465,2.622,3.251,5.002c4.564,13.832,12.042,60.204,14.222,111.855
					c1.134,26.881,2.642,45.771,2.642,45.771c0.358,4.823,2.768,8.711,5.397,8.682h60.883
					C256.117,412.503,253.706,408.616,253.349,403.792z"/>
			</g>
			<path style="fill:#263238;" d="M262.925,403.688h-60.883c0.352,4.824-1.494,8.757-4.123,8.786h60.883
				C261.431,412.445,263.276,408.512,262.925,403.688z"/>
		</g>
	</g>
</g>
<g id="Character_1_">
	<g>
		<path style="fill:#FFB573;" d="M349.961,163.241c3.128,4.467,5.963,8.94,8.678,13.629c2.674,4.72,5.226,9.461,7.265,14.964
			c0.49,1.407,0.959,2.835,1.294,4.548c0.081,0.438,0.148,0.905,0.215,1.355c0.045,0.517,0.095,1.009,0.096,1.575
			c-0.016,1.239-0.222,2.37-0.523,3.335c-0.605,1.964-1.498,3.435-2.403,4.766c-0.911,1.326-1.897,2.473-2.913,3.537
			c-4.087,4.211-8.506,7.322-13.365,10.058l-3.239-4.465c3.526-3.585,7.101-7.415,9.811-11.236c0.661-0.959,1.255-1.92,1.73-2.828
			c0.472-0.901,0.792-1.797,0.861-2.379c0.059-0.3,0.019-0.484-0.001-0.558c-0.017-0.089-0.051-0.252-0.068-0.388l-0.142-0.583
			c-0.228-0.857-0.639-1.916-1.091-2.96c-0.891-2.121-2.053-4.333-3.262-6.514c-1.21-2.195-2.506-4.384-3.838-6.564
			c-2.653-4.35-5.475-8.744-8.267-12.965L349.961,163.241z"/>
		<path style="fill:#FFB573;" d="M346.129,215.945l-4.997,2.123l4.937,6.906c0,0,3.629-2.023,4.09-5.551L346.129,215.945z"/>
		<polygon style="fill:#FFB573;" points="336.653,220.881 339.843,226.656 346.069,224.974 341.133,218.069 		"/>
		<g>
			<g>
				<polygon style="fill:#407BFF;" points="298.147,290.582 297.303,290.922 291.617,293.246 248.003,186.577 254.523,183.908 				
					"/>
				<polygon style="opacity:0.3;fill:#FFFFFF;" points="298.147,290.582 297.303,290.922 291.617,293.246 248.003,186.577 
					254.523,183.908 				"/>
			</g>
			<g>
				<polygon style="fill:#407BFF;" points="311.185,285.26 307.021,286.961 304.669,287.92 261.046,181.246 267.566,178.577 				"/>
				<polygon style="opacity:0.3;fill:#FFFFFF;" points="311.185,285.26 307.021,286.961 304.669,287.92 261.046,181.246 
					267.566,178.577 				"/>
			</g>
			
				<rect x="276.073" y="178.29" transform="matrix(0.9259 -0.3779 0.3779 0.9259 -68.4161 123.1433)" style="fill:#407BFF;" width="7.045" height="115.248"/>
			<g>
				<polygon style="fill:#407BFF;" points="256.087,170.057 250.217,172.457 247.999,186.579 267.564,178.579 				"/>
				<polygon style="opacity:0.3;" points="256.087,170.057 250.217,172.457 247.999,186.579 267.564,178.579 				"/>
			</g>
			<polygon style="fill:#407BFF;" points="251.168,166.405 250.217,172.457 256.087,170.057 			"/>
		</g>
		<path style="fill:#263238;" d="M313.583,133.167c0.065,0.589-0.194,1.101-0.579,1.143c-0.385,0.042-0.75-0.401-0.815-0.99
			c-0.065-0.589,0.194-1.101,0.579-1.143S313.518,132.578,313.583,133.167z"/>
		<path style="fill:#ED893E;" d="M313.443,134.262c0,0-0.964,3.546-2.258,5.348c1.149,0.857,2.872,0.218,2.872,0.218
			L313.443,134.262z"/>
		<path style="fill:#263238;" d="M315.379,129.659c0.08-0.026,0.152-0.081,0.197-0.16c0.095-0.167,0.036-0.38-0.132-0.474
			c-1.676-0.947-3.109-0.224-3.171-0.192c-0.171,0.089-0.237,0.299-0.148,0.469c0.089,0.17,0.301,0.235,0.468,0.149l0,0
			c0.047-0.024,1.172-0.576,2.509,0.18C315.189,129.68,315.289,129.687,315.379,129.659z"/>
		<path style="fill:#FFB573;" d="M332.473,137.525c-1.054,5.374-2.105,15.222,1.655,18.808c0,0-1.469,5.452-11.456,5.452
			c-10.981,0-5.248-5.451-5.248-5.451c5.993-1.431,5.838-5.878,4.794-10.053L332.473,137.525z"/>
		<path style="fill:#407BFF;" d="M336.365,158.136c0.992-0.736,0.504-3.645-0.882-4.697c-2.349-1.781-13.48-2.522-18.329,0.901
			c-1.579,1.965-1.18,4.417-1.18,4.417L336.365,158.136z"/>
		<path style="fill:#407BFF;" d="M364.922,408.175c-0.744,0.123-1.482,0.128-1.822-0.191c-0.142-0.134-0.28-0.384-0.128-0.816
			c0.08-0.227,0.239-0.391,0.473-0.489c1.014-0.424,3.245,0.617,3.34,0.662c0.062,0.029,0.101,0.092,0.099,0.161
			c-0.001,0.069-0.043,0.13-0.106,0.157C366.422,407.809,365.669,408.052,364.922,408.175z M363.786,406.943
			c-0.076,0.012-0.145,0.031-0.207,0.057c-0.141,0.059-0.232,0.152-0.279,0.284c-0.108,0.308,0.002,0.412,0.039,0.447
			c0.378,0.355,1.858,0.118,2.911-0.243C365.562,407.206,364.445,406.834,363.786,406.943z"/>
		<path style="fill:#407BFF;" d="M366.739,407.67c-0.028,0.005-0.057,0.002-0.085-0.007c-0.817-0.283-2.53-1.632-2.51-2.465
			c0.004-0.151,0.07-0.422,0.473-0.54c0.262-0.077,0.518-0.043,0.767,0.1c0.956,0.549,1.474,2.612,1.496,2.7
			c0.015,0.062-0.004,0.127-0.051,0.17C366.802,407.65,366.771,407.665,366.739,407.67z M364.791,404.973
			c-0.026,0.004-0.051,0.01-0.077,0.018c-0.219,0.064-0.221,0.17-0.222,0.215c-0.012,0.492,1.11,1.54,1.949,1.983
			c-0.186-0.597-0.618-1.778-1.231-2.13C365.07,404.978,364.932,404.95,364.791,404.973z"/>
		<path style="fill:#407BFF;" d="M314.588,409.114c-0.943,0-1.854-0.13-2.159-0.553c-0.107-0.148-0.191-0.401,0.015-0.76
			c0.115-0.202,0.301-0.339,0.551-0.407c1.223-0.332,3.79,1.131,3.899,1.193c0.063,0.036,0.097,0.107,0.085,0.179
			c-0.012,0.072-0.067,0.128-0.138,0.143C316.372,409.001,315.466,409.114,314.588,409.114z M313.423,407.689
			c-0.122,0-0.236,0.012-0.336,0.04c-0.161,0.044-0.272,0.123-0.341,0.243c-0.123,0.216-0.078,0.323-0.034,0.385
			c0.342,0.475,2.199,0.486,3.564,0.293C315.595,408.3,314.281,407.689,313.423,407.689z"/>
		<path style="fill:#407BFF;" d="M316.807,408.911c-0.024,0-0.048-0.005-0.071-0.015c-0.887-0.398-2.643-1.987-2.509-2.817
			c0.032-0.195,0.17-0.438,0.648-0.486c0.357-0.036,0.68,0.064,0.965,0.298c0.935,0.767,1.132,2.746,1.141,2.83
			c0.006,0.061-0.022,0.122-0.072,0.158C316.878,408.9,316.843,408.911,316.807,408.911z M315.015,405.933
			c-0.034,0-0.069,0.002-0.104,0.005c-0.313,0.032-0.333,0.155-0.339,0.196c-0.081,0.498,1.113,1.747,2.017,2.291
			c-0.094-0.578-0.356-1.762-0.97-2.265C315.434,406.007,315.235,405.933,315.015,405.933z"/>
		<polygon style="fill:#FFB573;" points="324.885,408.737 317.539,408.737 316.807,391.724 324.154,391.724 		"/>
		<polygon style="fill:#FFB573;" points="375.014,406.127 367.766,407.324 361.351,391.14 368.599,389.943 		"/>
		<path style="fill:#263238;" d="M367.113,406.57l8.143-1.345c0.296-0.049,0.587,0.115,0.699,0.393l2.496,6.206
			c0.259,0.644-0.162,1.363-0.848,1.464c-2.851,0.421-4.26,0.482-7.841,1.073c-2.203,0.364-7.183,1.318-10.225,1.821
			c-2.976,0.491-3.936-2.44-2.736-2.918c5.383-2.144,7.687-4.152,9.21-6.055C366.284,406.867,366.679,406.641,367.113,406.57z"/>
		<path style="fill:#263238;" d="M317.587,407.886h8.023c0.3,0,0.56,0.209,0.626,0.502l1.451,6.53
			c0.15,0.677-0.364,1.319-1.057,1.307c-2.894-0.049-7.076-0.219-10.713-0.219c-4.253,0-7.926,0.232-12.914,0.232
			c-3.016,0-3.853-3.049-2.591-3.325c5.747-1.257,10.439-1.392,15.406-4.454C316.357,408.126,316.953,407.886,317.587,407.886z"/>
		<g>
			<g>
				<path style="fill:#407BFF;" d="M347.281,157.994c7.009,0.879,14.422,17.798,14.422,17.798l-12.699,11.873
					c0,0-5.529-4.251-8.659-12.772C337.065,165.964,340.115,157.095,347.281,157.994z"/>
			</g>
			<g style="opacity:0.4;">
				<path d="M347.281,157.994c7.009,0.879,14.422,17.798,14.422,17.798l-12.699,11.873c0,0-5.529-4.251-8.659-12.772
					C337.065,165.964,340.115,157.095,347.281,157.994z"/>
			</g>
		</g>
		<path style="opacity:0.2;" d="M342.708,171.447c4.093,3.306,5.983,9.889,6.86,15.69l-0.56,0.529c0,0-5.535-4.256-8.666-12.775
			c-0.194-0.533-0.369-1.068-0.523-1.596L342.708,171.447z"/>
		<g>
			<g>
				<path style="fill:#407BFF;" d="M306.125,158.372c0,0-7.819,8.832-0.435,63.497c11.839,0,33.532,0,39.293,0
					c0.271-6.032-3.519-35.456,2.298-63.876c0,0-6.735-1.352-13.154-1.661c-5.021-0.242-12.289-0.402-16.703,0.001
					C311.605,156.864,306.125,158.372,306.125,158.372z"/>
			</g>
			<g style="opacity:0.4;">
				<path d="M306.125,158.372c0,0-7.819,8.832-0.435,63.497c11.839,0,33.532,0,39.293,0c0.271-6.032-3.519-35.456,2.298-63.876
					c0,0-6.735-1.352-13.154-1.661c-5.021-0.242-12.289-0.402-16.703,0.001C311.605,156.864,306.125,158.372,306.125,158.372z"/>
			</g>
		</g>
		<path style="opacity:0.2;" d="M302.69,175.08l0.15-0.13l8.93,2.14c0.51,6.04-5.7,13.26-8.9,16.56
			C302.43,185.94,302.44,179.86,302.69,175.08z"/>
		<g>
			<polygon style="opacity:0.2;" points="316.809,391.729 317.185,400.498 324.534,400.498 324.158,391.729 			"/>
			<polygon style="opacity:0.2;" points="368.603,389.948 361.352,391.145 364.662,399.486 371.913,398.289 			"/>
		</g>
		<path style="fill:#FFB573;" d="M333.09,129.751c0.354,7.282,0.931,11.527-2.312,15.642c-4.879,6.191-14.173,3.864-16.696-3.166
			c-2.271-6.327-2.468-17.174,4.295-20.833C325.039,117.788,332.736,122.469,333.09,129.751z"/>
		<path style="fill:#263238;" d="M318.254,135.5c-3.275,0.167-3.164-0.936-3.164-0.936s1.218-3.445,1.051-4.889
			c-1.167-0.5-2.229-4.009-2.084-5.009c-1.522,0.278-7.522-4.167,0.255-8.945c2.167,1.667,5.475,1.52,8.389,0.778
			c5.889-1.5,15.178,0.239,13.222,4.667c3.5,0,5.137,8.653,1.389,13.398c-3.942,4.991-3.007,10.83-7.004,11.383
			c-3.996,0.553-6.885-2.559-6.885-2.559S321.584,133.722,318.254,135.5z"/>
		<path style="fill:#263238;" d="M335.451,121.278c0,0,2.5-0.722,0.695-4.222C338.757,117.639,340.118,121.75,335.451,121.278z"/>
		<path style="fill:#FFB573;" d="M322.048,132.883c0.108,1.907-0.563,3.791-1.484,5.08c-1.386,1.938-3.173,1.041-3.705-1.06
			c-0.479-1.892-0.334-5.18,1.498-6.373C320.162,129.354,321.924,130.704,322.048,132.883z"/>
		<path style="fill:#407BFF;" d="M319.628,221.87c0,0,8.337,56.142,12.914,77.175c5.012,23.033,28.229,99.236,28.229,99.236
			l13.151-2.847c0,0-15.134-62.101-19.34-94.301c-3.231-24.734-9.599-79.263-9.599-79.263H319.628z"/>
		<path style="fill:#263238;" d="M357.622,393.891c-0.056,0.012,2.451,4.756,2.451,4.756l14.796-3.203l-1.247-4.448L357.622,393.891
			z"/>
		<path style="opacity:0.3;" d="M324.897,241.873c9.64,1.89,8.62,37.84,7.46,56.33c-2.78-13.07-6.85-38.22-9.63-56.07
			C323.367,241.813,324.087,241.713,324.897,241.873z"/>
		<path style="fill:#407BFF;" d="M305.69,221.87c0,0-3.052,54.927-2.253,77.33c0.831,23.302,11.01,99.601,11.01,99.601h12.445
			c0,0-1.583-74.937-1.03-97.822c0.604-24.949,8.082-79.108,8.082-79.108H305.69z"/>
		<path style="fill:#263238;" d="M312.052,393.843c-0.057,0,0.702,5.167,0.702,5.167h15.139l0.409-4.611L312.052,393.843z"/>
		<path style="fill:#FFB573;" d="M312.588,169.624c-0.902,2.878-1.899,5.463-2.972,8.144c-1.062,2.657-2.245,5.271-3.518,7.865
			c-2.587,5.171-5.5,10.259-9.593,15.022c-1.056,1.183-2.176,2.337-3.466,3.434c-1.282,1.082-2.804,2.161-4.351,2.923
			c-1.459,0.724-2.863,1.279-4.237,1.79c-1.376,0.511-2.736,0.974-4.103,1.388c-5.449,1.684-10.873,2.926-16.448,3.845l-1.598-5.279
			l14.819-6.868c2.38-1.153,4.826-2.337,6.745-3.551c0.868-0.57,1.576-1.13,2.356-1.874c0.768-0.738,1.508-1.623,2.245-2.53
			c1.456-1.873,2.818-3.974,4.063-6.202c1.265-2.218,2.436-4.539,3.537-6.919c1.114-2.372,2.141-4.808,3.149-7.257
			c0.987-2.429,1.939-5.001,2.775-7.351L312.588,169.624z"/>
		<g>
			<g>
				<path style="fill:#407BFF;" d="M316.844,165.714c5.673,8.388-7.602,23.698-7.602,23.698l-14.846-10.329
					c0,0,1.128-6.88,5.044-15.079C304.276,153.875,312.526,159.329,316.844,165.714z"/>
			</g>
			<g style="opacity:0.4;">
				<path d="M316.844,165.714c5.673,8.388-7.602,23.698-7.602,23.698l-14.846-10.329c0,0,1.128-6.88,5.044-15.079
					C304.276,153.875,312.526,159.329,316.844,165.714z"/>
			</g>
		</g>
		<path style="fill:#FFB573;" d="M266.407,208.072l-9.136,0.978l2.12,7.748c0,0,6.482,0.214,8.586-4.705L266.407,208.072z"/>
		<polygon style="fill:#FFB573;" points="254.326,211.407 256.087,217.749 259.391,216.798 257.271,209.05 		"/>
	</g>
</g>
</svg>
